# xmcd CD database file
#
# Track frame offsets:
#	150
#	24853
#	58142
#	84313
#	111404
#	149794
#	172791
#
# Disc length: 2734 seconds
#
# Revision: 0
# Processed by: cddbd v1.5.2PL0 Copyright (c) Steve Scherf et al.
# Submitted via: CDex 1.51
#
DISCID=580aac07
DTITLE=De Coninck and Co - Gliding bird
DYEAR=2003
DGENRE=Jazz
TTITLE0=Time for the blues
TTITLE1=Gliding bird
TTITLE2=Sisyphus on his way back
TTITLE3=Dancing Muze
TTITLE4=Araucaria, living fossil
TTITLE5=News from the West Indies
TTITLE6=Missed the train
EXTD=YEAR: 2003
EXTT0=
EXTT1=
EXTT2=
EXTT3=
EXTT4=
EXTT5=
EXTT6=
PLAYORDER=
